# xmcd
# 
# Track frame offsets:
#     150
#     18412
#     36572
#     49547
#     62640
#     80167
#     100207
#     117840
#     134110
#     148725
#     164827
#     180822
#     194560
#     211465
#     228580
#     246355
#     264862
#     282770
#     298597
#     316295
#     332160
# 
# Disc length: 4639
# 
# Revision: 43
# Processed by: cddbd v1.5.2PL0 Copyright (c) Steve Scherf et al.
# Submitted via: fre:ac v1.0.31
# 
DISCID=47121d15
DTITLE=Various Artist - Greatest Hits
DYEAR=2004
DGENRE=Folk/Country
TTITLE0=Shania Twain - Forever and for Always
TTITLE1=Shania Twain - I'm Gonna Getcha Good!
TTITLE2=Shania Twain - Up!
TTITLE3=Shania Twain - Come On Over
TTITLE4=Shania Twain - Man! I Feel Like a Woman!
TTITLE5=Shania Twain - That Don't Impress Me Much
TTITLE6=Shania Twain - From This Moment On
TTITLE7=Shania Twain - Honey, I'm Home
TTITLE8=Shania Twain - You're Still the One
TTITLE9=Shania Twain - Don't Be Stupid (You Know I Love You)
TTITLE10=Shania Twain - Love Gets Me Every Time
TTITLE11=Shania Twain - No One Needs to Know
TTITLE12=Shania Twain - You Win My Love
TTITLE13=Shania Twain - (If You're Not in It for Love) I'm Outta Here!
TTITLE14=Shania Twain - The Woman in Me (Needs the Man in You)
TTITLE15=Shania Twain - Any Man of Mine
TTITLE16=Shania Twain - Whose Bed Have Your Boots Been Under?
TTITLE17=Shania Twain featuring Mark Mcgrath - Party for Two
TTITLE18=Shania Twain - Don't!
TTITLE19=Shania Twain featuring Billy Currington - Party for Two
TTITLE20=Shania Twain - I Ain't No Quitter
EXTD=YEAR: 2004
EXTT0=
EXTT1=
EXTT2=
EXTT3=
EXTT4=
EXTT5=
EXTT6=
EXTT7=
EXTT8=
EXTT9=
EXTT10=
EXTT11=
EXTT12=
EXTT13=
EXTT14=
EXTT15=
EXTT16=
EXTT17=
EXTT18=
EXTT19=
EXTT20=
PLAYORDER=
